<svg width="427" height="138" viewBox="0 0 427 138" fill="none" xmlns="http://www.w3.org/2000/svg">
<path fill-rule="evenodd" clip-rule="evenodd" d="M1.5162 0.745853C1.51621 0.745766 1.51622 0.745685 3.5 0.999941C5.48377 1.2542 5.48378 1.25413 5.48379 1.25406L5.48224 1.26629L5.47658 1.31186C5.47148 1.35327 5.46379 1.41661 5.45383 1.5011C5.43391 1.67008 5.40492 1.92363 5.36945 2.25554C5.29852 2.91941 5.20172 3.8964 5.0998 5.13684L1.11323 4.80929C1.21803 3.53383 1.31797 2.52426 1.39209 1.83054C1.42916 1.48365 1.45978 1.21566 1.48134 1.03279C1.49212 0.941351 1.50063 0.871188 1.50656 0.82308L1.51346 0.767553L1.5162 0.745853ZM0.583396 21.0003C0.537986 18.0837 0.57447 15.354 0.654367 12.9024L4.65224 13.0327C4.57418 15.4279 4.53862 18.093 4.58291 20.938L0.583396 21.0003ZM332.5 30.9999C331.166 30.9999 329.82 31.0061 328.464 31.0188L328.427 27.019C329.795 27.0062 331.154 26.9999 332.5 26.9999C333.939 26.9999 335.357 27.019 336.754 27.0566L336.647 31.0551C335.286 31.0185 333.904 30.9999 332.5 30.9999ZM320.359 31.1698C317.689 31.2443 314.989 31.3443 312.271 31.4712L312.084 27.4756C314.828 27.3474 317.552 27.2466 320.247 27.1713L320.359 31.1698ZM352.754 32.4451C350.176 32.0539 347.502 31.7377 344.729 31.502L345.068 27.5163C347.925 27.7592 350.686 28.0855 353.355 28.4904L352.754 32.4451ZM304.181 31.9272C301.497 32.1048 298.804 32.3097 296.108 32.5434L295.763 28.5583C298.486 28.3222 301.207 28.1152 303.917 27.9359L304.181 31.9272ZM1.73379 37.1965C1.36807 34.4585 1.10502 31.7443 0.922145 29.1066L4.91257 28.8299C5.09029 31.3933 5.34535 34.0225 5.69857 36.6669L1.73379 37.1965ZM288.053 33.3297C285.366 33.6221 282.687 33.9448 280.023 34.2991L279.496 30.3341C282.192 29.9753 284.903 29.6489 287.62 29.3532L288.053 33.3297ZM368.463 36.0734C365.986 35.2799 363.395 34.5687 360.686 33.9475L361.58 30.0487C364.396 30.6944 367.096 31.4352 369.683 32.264L368.463 36.0734ZM272.023 35.4695C269.34 35.8989 266.684 36.363 264.063 36.8633L263.313 32.9342C265.976 32.426 268.671 31.9551 271.39 31.5198L272.023 35.4695ZM256.175 38.5061C253.511 39.1099 250.896 39.755 248.342 40.4433L247.301 36.5811C249.911 35.8778 252.578 35.2199 255.29 34.6051L256.175 38.5061ZM383.203 42.4098C380.934 41.1458 378.536 39.9656 376.002 38.8803L377.576 35.2032C380.237 36.3423 382.759 37.5834 385.15 38.9157L383.203 42.4098ZM240.639 42.7128C238.028 43.5533 235.501 44.4454 233.071 45.3913L231.62 41.6635C234.131 40.6864 236.734 39.7679 239.414 38.9053L240.639 42.7128ZM396.18 51.6767C394.247 49.93 392.176 48.2589 389.959 46.6777L392.281 43.4209C394.625 45.0924 396.816 46.86 398.862 48.7086L396.18 51.6767ZM5.23589 53.1696C4.39467 50.5811 3.69708 47.9207 3.12064 45.2397L7.03127 44.3989C7.58292 46.9646 8.24645 49.4914 9.04004 51.9333L5.23589 53.1696ZM225.754 48.5467C223.276 49.7333 220.939 50.9876 218.759 52.312L216.682 48.8935C218.988 47.4929 221.443 46.1762 224.027 44.9389L225.754 48.5467ZM212.311 56.8159C210.206 58.52 208.342 60.3148 206.737 62.2026L203.689 59.6116C205.474 57.5131 207.521 55.5478 209.793 53.7074L212.311 56.8159ZM406.726 63.6797C405.223 61.5199 403.585 59.4146 401.801 57.3812L404.808 54.7433C406.694 56.8932 408.423 59.1167 410.009 61.3944L406.726 63.6797ZM10.284 64.527C9.57399 63.3409 8.91498 62.1144 8.30335 60.8553L11.9013 59.1075C12.4657 60.2694 13.0699 61.3931 13.716 62.4724C14.3763 63.5754 15.0687 64.6333 15.7921 65.6477L12.5353 67.9701C11.7491 66.8676 10.9983 65.7203 10.284 64.527ZM239.014 64.2961C236.533 64.295 233.969 64.3755 231.33 64.5291L231.098 60.5359C233.805 60.3783 236.447 60.295 239.015 60.2961L239.014 64.2961ZM254.158 65.5841C251.785 65.1264 249.279 64.7977 246.65 64.5869L246.97 60.5997C249.726 60.8206 252.379 61.1673 254.915 61.6564L254.158 65.5841ZM223.634 65.1552C221.121 65.4128 218.554 65.7235 215.938 66.0808L215.397 62.1176C218.052 61.755 220.664 61.4387 223.226 61.1761L223.634 65.1552ZM202.029 68.3044C204.125 67.9275 206.199 67.5707 208.248 67.2368L207.605 63.2889C205.067 63.7024 202.495 64.1502 199.894 64.6267L200.422 67.5109L198.932 66.7751C197.652 69.3672 196.735 72.1144 196.225 75.0194L200.165 75.7111C200.607 73.1924 201.402 70.8077 202.519 68.5462L202.029 68.3044ZM267.978 70.7011C265.977 69.448 263.77 68.3956 261.366 67.5294L262.722 63.7663C265.363 64.718 267.831 65.8899 270.101 67.3107L267.978 70.7011ZM192.993 70.0189C190.475 70.5191 187.931 71.0409 185.366 71.5798L184.544 67.6652C187.121 67.1238 189.679 66.599 192.214 66.0955L192.993 70.0189ZM414.47 77.7191C413.424 75.2842 412.255 72.8699 410.95 70.4965L414.455 68.5694C415.826 71.0625 417.051 73.5936 418.145 76.1401L414.47 77.7191ZM177.736 73.2148C175.214 73.7645 172.677 74.3256 170.126 74.8939L169.256 70.9897C171.811 70.4204 174.355 69.8579 176.884 69.3066L177.736 73.2148ZM23.9725 79.3845C21.7735 77.8241 19.7024 76.0862 17.7711 74.1583L20.5971 71.3274C22.3662 73.0934 24.2656 74.6878 26.2873 76.1224L23.9725 79.3845ZM275.86 78.1448C275.154 77.1332 274.391 76.1879 273.573 75.3052L276.508 72.587C277.45 73.6046 278.329 74.6932 279.14 75.8551C279.946 77.0098 280.649 78.1565 281.25 79.2943L277.714 81.1642C277.195 80.182 276.579 79.175 275.86 78.1448ZM160.737 76.9989C158.796 77.4354 156.85 77.873 154.901 78.3098L154.026 74.4066C155.972 73.9704 157.915 73.5335 159.855 73.0974C160.451 72.9632 161.047 72.8291 161.643 72.6952L162.521 76.5978C161.926 76.7314 161.332 76.8651 160.737 76.9989ZM147.275 80.0077C144.731 80.5694 142.185 81.1257 139.64 81.6726L138.8 77.7619C141.336 77.2169 143.875 76.6622 146.413 76.1018L147.275 80.0077ZM131.982 83.2868C129.42 83.8154 126.862 84.3302 124.311 84.8271L123.546 80.9009C126.081 80.4072 128.624 79.8952 131.174 79.3693L131.982 83.2868ZM38.3497 86.6323C35.7729 85.748 33.2915 84.7196 30.9168 83.5339L32.7036 79.9552C34.9089 81.0563 37.2261 82.0177 39.6481 82.8489L38.3497 86.6323ZM116.626 86.2705C114.033 86.7381 111.451 87.1825 108.885 87.5991L108.244 83.6507C110.785 83.2382 113.344 82.7978 115.917 82.334L116.626 86.2705ZM199.887 83.2882C200 84.5242 200.19 85.793 200.459 87.0954C200.705 88.2893 201.013 89.4331 201.376 90.5285L197.58 91.7889C197.166 90.5428 196.819 89.2481 196.541 87.9044C196.243 86.4621 196.031 85.0456 195.903 83.655L199.887 83.2882ZM419.526 93.0156C418.902 90.4471 418.17 87.8522 417.316 85.2554L421.115 84.0052C422.005 86.7093 422.765 89.4064 423.413 92.0704L419.526 93.0156ZM101.119 88.7771C98.5027 89.1444 95.9062 89.4772 93.3337 89.7704L92.8808 85.7961C95.4159 85.5072 97.9778 85.1788 100.563 84.8159L101.119 88.7771ZM53.9113 90.1931C51.2263 89.8344 48.6068 89.3737 46.0613 88.801L46.9394 84.8986C49.36 85.4432 51.8626 85.8839 54.441 86.2283L53.9113 90.1931ZM85.5309 90.5393C82.8715 90.7579 80.2426 90.9265 77.6492 91.0393L77.4755 87.0431C80.0133 86.9327 82.5907 86.7674 85.2034 86.5528L85.5309 90.5393ZM69.7381 91.2031C67.051 91.1934 64.4089 91.1127 61.818 90.9534L62.0635 86.9609C64.571 87.1151 67.1358 87.1937 69.7525 87.2032L69.7381 91.2031ZM279.235 94.144C279.941 92.1124 280.188 89.9382 279.88 87.6192L283.846 87.0932C284.236 90.0364 283.923 92.8403 283.013 95.4572L279.235 94.144ZM204.408 96.8659C205.696 98.8546 207.222 100.638 208.947 102.227L206.237 105.169C204.278 103.365 202.531 101.326 201.051 99.0408L204.408 96.8659ZM270.414 104.428C272.502 103.047 274.3 101.527 275.754 99.8938L278.742 102.554C277.022 104.485 274.949 106.225 272.62 107.765L270.414 104.428ZM422.229 108.973C421.966 106.387 421.615 103.701 421.152 100.95L425.096 100.286C425.575 103.13 425.938 105.903 426.208 108.569L422.229 108.973ZM214.676 106.413C216.71 107.591 218.896 108.592 221.198 109.421L219.843 113.184C217.337 112.282 214.93 111.183 212.671 109.874L214.676 106.413ZM257.199 110.208C259.612 109.542 261.917 108.739 264.071 107.813L265.652 111.487C263.318 112.491 260.84 113.353 258.264 114.064L257.199 110.208ZM228.19 111.353C230.55 111.828 232.974 112.151 235.424 112.329L235.134 116.318C232.526 116.129 229.936 115.784 227.401 115.275L228.19 111.353ZM242.744 112.439C245.202 112.338 247.647 112.1 250.041 111.733L250.647 115.686C248.107 116.076 245.515 116.328 242.909 116.436L242.744 112.439ZM422.876 125.19C422.926 122.751 422.914 120.015 422.797 117.055L426.793 116.895C426.915 119.943 426.926 122.759 426.875 125.271L422.876 125.19ZM422.154 136.207C422.234 135.54 422.344 134.553 422.453 133.287L426.438 133.633C426.324 134.947 426.21 135.98 426.124 136.689C426.081 137.043 426.045 137.316 426.02 137.503C426.007 137.597 425.997 137.669 425.989 137.719L425.981 137.777L425.978 137.793L425.978 137.798L425.977 137.799C425.977 137.8 425.977 137.801 424 137.5C422.023 137.199 422.023 137.199 422.023 137.2L422.023 137.198L422.024 137.189L422.031 137.146C422.036 137.106 422.045 137.043 422.057 136.96C422.08 136.792 422.113 136.54 422.154 136.207Z" fill="#D9D9D9"/>
</svg>
