<svg width="63" height="50" viewBox="0 0 63 50" fill="none" xmlns="http://www.w3.org/2000/svg">
<path fill-rule="evenodd" clip-rule="evenodd" d="M34 7.77053C34 4.03127 36.9679 1 40.629 1H62V11.1053H43.894V20.7053H58.5371V30.8105H43.894V49H34V7.77053Z" fill="white"/>
<path fill-rule="evenodd" clip-rule="evenodd" d="M21.7115 12H31.99V31.2588C31.9912 31.29 31.9923 31.3245 31.9934 31.3622C31.9975 31.5054 32.0008 31.6954 31.9998 31.9258C31.998 32.3849 31.9793 33.014 31.9152 33.7588C31.7895 35.219 31.477 37.2705 30.6815 39.4031C29.8863 41.5349 28.5219 43.9741 26.157 45.8908C23.7127 47.8718 20.559 49 16.7777 49C13.1508 49 10.0909 48.0584 7.63708 46.3738C5.22244 44.716 3.70658 42.5547 2.76419 40.5757C1.83021 38.6143 1.40292 36.7195 1.20015 35.3622C1.09685 34.6708 1.04675 34.0841 1.02249 33.651C1.01031 33.4336 1.0045 33.2524 1.0019 33.1133C1.0006 33.0437 1.0001 32.9843 1.00001 32.936C0.999974 32.9139 1.00002 32.894 1.00012 32.8765V31.3664H11.2787V32.9233C11.2787 32.9237 11.2787 32.9242 11.2787 32.9246C11.2791 32.9467 11.2806 33.002 11.2852 33.0856C11.2947 33.2546 11.3169 33.5279 11.3678 33.8685C11.4733 34.5752 11.682 35.4325 12.0586 36.2232C12.4267 36.9963 12.8959 37.587 13.4877 37.9933C14.0404 38.3727 15.0084 38.8072 16.7777 38.8072C18.3927 38.8072 19.1963 38.3682 19.6525 37.9985C20.188 37.5645 20.6674 36.8694 21.0414 35.8668C21.415 34.8651 21.5972 33.7824 21.6739 32.8918C21.7109 32.4613 21.7204 32.1109 21.7213 31.8844C21.7218 31.772 21.7202 31.6927 21.719 31.6521C21.7187 31.6426 21.7185 31.6352 21.7183 31.6302L21.7115 31.5113V12Z" fill="white"/>
<path d="M32 6C32 8.76142 29.7614 11 27 11C24.2386 11 22 8.76142 22 6C22 3.23858 24.2386 1 27 1C29.7614 1 32 3.23858 32 6Z" fill="white"/>
</svg>
