<svg width="454" height="118" viewBox="0 0 454 118" fill="none" xmlns="http://www.w3.org/2000/svg">
<path fill-rule="evenodd" clip-rule="evenodd" d="M1.5162 0.745853C1.51621 0.745766 1.51622 0.745685 3.5 0.999941C5.48377 1.2542 5.48378 1.25413 5.48379 1.25406L5.48224 1.26629L5.47658 1.31186C5.47148 1.35327 5.46379 1.41661 5.45383 1.5011C5.43391 1.67008 5.40492 1.92363 5.36945 2.25554C5.29852 2.91941 5.20172 3.8964 5.0998 5.13684L1.11323 4.80929C1.21803 3.53383 1.31797 2.52426 1.39209 1.83054C1.42916 1.48365 1.45978 1.21566 1.48134 1.03279C1.49212 0.941351 1.50063 0.871188 1.50656 0.82308L1.51346 0.767553L1.5162 0.745853ZM0.583396 21.0003C0.537986 18.0837 0.57447 15.354 0.654367 12.9024L4.65225 13.0327C4.57419 15.4279 4.53862 18.093 4.58291 20.938L0.583396 21.0003ZM1.73379 37.1965C1.36807 34.4585 1.10502 31.7443 0.922145 29.1066L4.91257 28.8299C5.09029 31.3933 5.34535 34.0225 5.69857 36.6669L1.73379 37.1965ZM391.166 34.6563C388.64 34.6908 385.991 34.7965 383.224 34.9683L382.976 30.976C385.799 30.8007 388.513 30.6922 391.111 30.6566L391.166 34.6563ZM406.824 35.6524C404.457 35.2465 401.86 34.9667 399.044 34.8066L399.271 30.813C402.208 30.9801 404.958 31.274 407.5 31.7099L406.824 35.6524ZM375.209 35.6159C372.623 35.8686 369.956 36.1677 367.212 36.5098L366.717 32.5406C369.492 32.1945 372.195 31.8913 374.82 31.6348L375.209 35.6159ZM359.336 37.5771C356.728 37.9568 354.062 38.3689 351.342 38.811L350.701 34.8628C353.441 34.4175 356.128 34.0019 358.76 33.6189L359.336 37.5771ZM417.465 39.2112C416.508 38.6325 415.434 38.1064 414.24 37.6344L415.712 33.9148C417.085 34.458 418.363 35.0799 419.535 35.7882C420.67 36.4743 421.768 37.1795 422.832 37.9023L420.584 41.2109C419.579 40.528 418.54 39.8609 417.465 39.2112ZM343.447 40.1497C340.852 40.6066 338.215 41.0868 335.539 41.5881L334.803 37.6565C337.492 37.1527 340.143 36.67 342.753 36.2103L343.447 40.1497ZM327.603 43.1123C325.017 43.6206 322.399 44.1458 319.75 44.6862L318.951 40.767C321.607 40.2248 324.235 39.6977 326.832 39.1874L327.603 43.1123ZM311.813 46.3317C309.228 46.8753 306.618 47.4312 303.986 47.9981L303.144 44.0877C305.782 43.5196 308.398 42.9624 310.99 42.4173L311.813 46.3317ZM431.742 50.7873C430.122 49.0314 428.36 47.3261 426.446 45.6855L429.048 42.648C431.083 44.3913 432.957 46.2052 434.682 48.0746L431.742 50.7873ZM5.23589 53.1696C4.39467 50.5811 3.69708 47.9207 3.12064 45.2397L7.03127 44.3989C7.58292 46.9646 8.24645 49.4914 9.04004 51.9333L5.23589 53.1696ZM296.063 49.7206C293.474 50.2885 290.866 50.8651 288.241 51.4492L287.372 47.5446C290.001 46.9598 292.613 46.3823 295.206 45.8135L296.063 49.7206ZM280.338 53.217C277.742 53.8006 275.131 54.3899 272.508 54.9838L271.625 51.0825C274.25 50.4883 276.862 49.8985 279.461 49.3144L280.338 53.217ZM257.47 58.3995L256.778 58.5571L255.89 54.6567L256.649 54.4841C259.019 53.9449 261.382 53.4072 263.736 52.8722L264.623 56.7727C262.247 57.3126 259.862 57.8552 257.47 58.3995ZM440.357 62.6792C439.182 60.579 437.867 58.5052 436.398 56.4761L439.638 54.1306C441.202 56.2902 442.599 58.4953 443.848 60.7253L440.357 62.6792ZM248.904 60.3474C246.29 60.9412 243.669 61.5357 241.043 62.1298L240.16 58.2284C242.785 57.6346 245.405 57.0403 248.018 56.4467L248.904 60.3474ZM10.284 64.527C9.57399 63.3409 8.91498 62.1144 8.30335 60.8553L11.9013 59.1075C12.4657 60.2694 13.0699 61.3931 13.716 62.4724C14.3682 63.5618 15.0829 64.6036 15.8587 65.5996L12.7029 68.0575C11.8278 66.934 11.0207 65.7575 10.284 64.527ZM233.173 63.9044C230.551 64.4935 227.925 65.0811 225.297 65.6659L224.428 61.7615C227.053 61.1773 229.676 60.5903 232.296 60.0017L233.173 63.9044ZM217.422 67.4085C214.792 67.9866 212.163 68.5608 209.534 69.13L208.688 65.2206C211.312 64.6524 213.937 64.0791 216.563 63.5018L217.422 67.4085ZM201.643 70.824C199.007 71.3844 196.375 71.9386 193.747 72.4854L192.932 68.5693C195.554 68.0238 198.18 67.4708 200.811 66.9115L201.643 70.824ZM446.114 76.2506C445.406 73.9422 444.573 71.6186 443.594 69.3035L447.279 67.7462C448.314 70.195 449.193 72.6478 449.938 75.0786L446.114 76.2506ZM185.83 74.1126C183.189 74.6483 180.554 75.1753 177.928 75.6924L177.155 71.7677C179.774 71.2522 182.401 70.7267 185.035 70.1924L185.83 74.1126ZM25.6393 78.7293C23.1056 77.3562 20.7661 75.8131 18.641 74.0869L21.163 70.9821C23.0782 72.5378 25.2081 73.946 27.5452 75.2126L25.6393 78.7293ZM169.977 77.2315C167.329 77.7347 164.692 78.2265 162.067 78.7056L161.349 74.7706C163.964 74.2934 166.591 73.8034 169.23 73.3018L169.977 77.2315ZM154.075 80.1303C151.419 80.5921 148.777 81.0393 146.152 81.4706L145.504 77.5235C148.116 77.0943 150.746 76.6492 153.39 76.1894L154.075 80.1303ZM41.177 84.5935C38.4016 83.8906 35.7525 83.0779 33.2409 82.147L34.631 78.3964C36.9953 79.2726 39.5069 80.0443 42.1589 80.7159L41.177 84.5935ZM138.117 82.7474C135.448 83.1567 132.797 83.5476 130.169 83.9186L129.61 79.9579C132.222 79.5892 134.856 79.2006 137.511 78.7936L138.117 82.7474ZM122.094 85.0032C119.404 85.3453 116.739 85.6642 114.103 85.9582L113.659 81.9829C116.274 81.6913 118.919 81.3748 121.589 81.0351L122.094 85.0032ZM57.2999 87.3653C54.5375 87.0762 51.858 86.7162 49.2679 86.2806L49.9314 82.336C52.4323 82.7567 55.029 83.1058 57.7162 83.387L57.2999 87.3653ZM449.123 90.7517C448.844 88.3839 448.46 85.9307 447.943 83.4257L451.861 82.6179C452.402 85.244 452.804 87.811 453.096 90.2839L449.123 90.7517ZM106.002 86.79C103.282 87.0441 100.595 87.2686 97.9447 87.4614L97.6544 83.472C100.276 83.2813 102.935 83.0591 105.63 82.8073L106.002 86.79ZM89.8507 87.9555C87.0889 88.09 84.3721 88.1856 81.7039 88.2398L81.6226 84.2407C84.2506 84.1872 86.9295 84.093 89.6561 83.9602L89.8507 87.9555ZM73.6779 88.2737C70.868 88.2376 68.1198 88.1486 65.4382 88.0035L65.6543 84.0094C68.2769 84.1513 70.9701 84.2386 73.7294 84.2741L73.6779 88.2737ZM449.683 105.61C449.773 103.374 449.794 100.871 449.694 98.1687L453.691 98.02C453.796 100.835 453.773 103.441 453.68 105.77L449.683 105.61ZM448.704 115.693C448.806 115.082 448.946 114.174 449.09 113.011L453.059 113.502C452.908 114.726 452.76 115.69 452.649 116.353C452.593 116.685 452.547 116.942 452.514 117.118C452.498 117.207 452.484 117.275 452.475 117.323L452.464 117.378L452.461 117.395L452.46 117.4L452.459 117.401L452.459 117.402C452.459 117.403 452.459 117.403 450.5 117C448.541 116.597 448.541 116.597 448.541 116.597L448.542 116.59L448.55 116.551C448.557 116.515 448.568 116.459 448.582 116.383C448.611 116.231 448.653 115.999 448.704 115.693Z" fill="#D9D9D9"/>
</svg>
